<svg width="35" height="34" viewBox="0 0 35 34" fill="none" xmlns="http://www.w3.org/2000/svg">
<path d="M10.7943 17.7792C9.56253 18.0736 8.46492 18.7721 7.67661 19.7633C6.8883 20.7544 6.45473 21.9811 6.4451 23.2475V27.6533C6.44317 27.7432 6.45944 27.8325 6.49293 27.9158C6.52641 27.9992 6.57643 28.0749 6.63996 28.1385C6.7035 28.202 6.77923 28.252 6.86261 28.2855C6.94598 28.319 7.03527 28.3353 7.1251 28.3333L11.7151 28.2483C12.7406 28.25 13.7449 27.9571 14.6088 27.4047C15.4727 26.8522 16.1598 26.0632 16.5884 25.1317C17.0283 24.2537 17.209 23.2686 17.1095 22.2917C17.01 21.3148 16.6344 20.3864 16.0266 19.6151C15.4188 18.8439 14.6039 18.2616 13.6773 17.9365C12.7507 17.6114 11.7507 17.5568 10.7943 17.7792Z" fill="#C24BD6"/>
<path d="M27.9926 6.31834C27.3981 5.84958 26.6498 5.62017 25.8948 5.67522C25.1398 5.73028 24.4327 6.06581 23.9126 6.61584L14.8742 15.6967C14.7514 15.8213 14.6825 15.9892 14.6825 16.1642C14.6825 16.3391 14.7514 16.5071 14.8742 16.6317L18.0617 19.8333C18.1863 19.9562 18.3542 20.0251 18.5292 20.0251C18.7042 20.0251 18.8721 19.9562 18.9967 19.8333L28.1909 10.6675C28.4633 10.3939 28.6787 10.0689 28.8246 9.71144C28.9705 9.35397 29.044 8.9711 29.0409 8.58501C29.0509 8.15221 28.9617 7.72287 28.7799 7.32994C28.5982 6.93702 28.3288 6.59096 27.9926 6.31834Z" fill="#C24BD6"/>
</svg>
