<svg width="30" height="27" viewBox="0 0 30 27" fill="none" xmlns="http://www.w3.org/2000/svg">
<path d="M27.3357 10.391C28.2214 9.51691 28.2214 8.09979 27.3357 7.22574L22.7045 2.65554C21.8497 1.81204 20.4748 1.77833 19.5786 2.5789L8.27006 12.6813L16.6424 20.9433L27.3357 10.391Z" />
<path d="M16.6424 20.9433L12.6977 24.8361C12.5914 24.941 12.4472 25 12.2968 25H7.09641C6.94603 25 6.80181 24.941 6.69547 24.8361L2.6643 20.8581C1.7473 19.9531 1.78451 18.475 2.74592 17.6162L8.27006 12.6813M16.6424 20.9433L27.3357 10.391C28.2214 9.51691 28.2214 8.09979 27.3357 7.22574L22.7045 2.65554C21.8497 1.81204 20.4748 1.77833 19.5786 2.5789L8.27006 12.6813M16.6424 20.9433L8.27006 12.6813"
stroke="#fff"
stroke-width="4"
stroke-linecap="round"/>
</svg>
