<svg width="33" height="33" viewBox="0 0 33 33" fill="none" xmlns="http://www.w3.org/2000/svg">
<path d="M26.8676 6.98501C25.489 5.61609 23.8508 4.53633 22.0492 3.80909C20.2476 3.08185 18.319 2.72178 16.3763 2.75001C12.7296 2.74089 9.22862 4.1808 6.64355 6.75298C4.05848 9.32516 2.60108 12.8189 2.59196 16.4656C2.58285 20.1124 4.02276 23.6133 6.59494 26.1984C9.16712 28.7835 12.6609 30.2409 16.3076 30.25C17.0934 30.2634 17.8614 30.0154 18.491 29.5451C19.1206 29.0747 19.5763 28.4086 19.7863 27.6513C19.9202 27.1043 19.9189 26.533 19.7823 25.9868C19.6457 25.4405 19.3781 24.9358 19.0026 24.5163C18.9158 24.4174 18.8591 24.2958 18.8393 24.1657C18.8196 24.0357 18.8376 23.9027 18.8911 23.7825C18.9447 23.6624 19.0316 23.5601 19.1415 23.4879C19.2514 23.4157 19.3798 23.3765 19.5113 23.375H21.7801C23.9154 23.385 25.9754 22.5868 27.5465 21.1407C29.1176 19.6945 30.0835 17.7076 30.2501 15.5788C30.3012 13.9915 30.0276 12.4105 29.446 10.9327C28.8643 9.45495 27.9869 8.11159 26.8676 6.98501ZM9.40509 20.2675C9.06749 20.4969 8.66939 20.6211 8.26122 20.6241C7.85304 20.6272 7.45313 20.509 7.11213 20.2847C6.77113 20.0603 6.50436 19.7398 6.34562 19.3638C6.18687 18.9877 6.14328 18.573 6.22037 18.1722C6.29746 17.7713 6.49175 17.4024 6.77865 17.112C7.06555 16.8217 7.43216 16.623 7.83205 16.5411C8.23194 16.4592 8.64714 16.4978 9.02507 16.6521C9.403 16.8063 9.72666 17.0692 9.95509 17.4075C10.1082 17.6309 10.2154 17.8825 10.2706 18.1477C10.3258 18.4128 10.3279 18.6863 10.2768 18.9523C10.2256 19.2182 10.1223 19.4714 9.97263 19.6972C9.82301 19.9229 9.63011 20.1168 9.40509 20.2675ZM11.4126 12.7188C11.2169 13.0811 10.9173 13.3766 10.5523 13.5672C10.1873 13.7577 9.77357 13.8347 9.36443 13.7881C8.95529 13.7415 8.56946 13.5736 8.25662 13.3058C7.94378 13.0381 7.71824 12.6828 7.60906 12.2857C7.49987 11.8887 7.51203 11.4681 7.64397 11.078C7.77591 10.6879 8.0216 10.3463 8.34939 10.097C8.67718 9.84781 9.07207 9.7024 9.48321 9.67954C9.89436 9.65668 10.3029 9.7574 10.6563 9.96876C11.1123 10.2415 11.4455 10.6797 11.5864 11.192C11.7273 11.7043 11.665 12.2512 11.4126 12.7188ZM15.1251 9.62501C14.7172 9.62501 14.3184 9.50404 13.9792 9.27741C13.64 9.05078 13.3757 8.72866 13.2196 8.35179C13.0635 7.97492 13.0226 7.56022 13.1022 7.16013C13.1818 6.76005 13.3782 6.39254 13.6667 6.1041C13.9551 5.81565 14.3226 5.61922 14.7227 5.53964C15.1228 5.46005 15.5375 5.5009 15.9144 5.657C16.2912 5.81311 16.6134 6.07747 16.84 6.41664C17.0666 6.75582 17.1876 7.15458 17.1876 7.56251C17.1876 8.10952 16.9703 8.63412 16.5835 9.02091C16.1967 9.40771 15.6721 9.62501 15.1251 9.62501ZM23.0313 10.725C22.6779 10.9364 22.2694 11.0371 21.8582 11.0142C21.4471 10.9914 21.0522 10.8459 20.7244 10.5967C20.3966 10.3475 20.1509 10.0058 20.019 9.61577C19.887 9.2257 19.8749 8.80506 19.9841 8.40802C20.0932 8.01098 20.3188 7.65571 20.6316 7.38796C20.9445 7.1202 21.3303 6.95222 21.7394 6.90564C22.1486 6.85906 22.5623 6.93602 22.9273 7.1266C23.2923 7.31718 23.5919 7.61267 23.7876 7.97501C24.04 8.44255 24.1023 8.98947 23.9614 9.50179C23.8205 10.0141 23.4873 10.4523 23.0313 10.725Z"
fill="#6f36da"
/>
</svg>
