<svg width="17" height="17" viewBox="0 0 17 17" fill="none" xmlns="http://www.w3.org/2000/svg">
<path d="M13.6934 4.05335C13.0249 3.38963 12.2307 2.86611 11.3572 2.51351C10.4837 2.16091 9.54857 1.98633 8.60669 2.00001C6.83858 1.99559 5.14114 2.69373 3.88777 3.94085C2.6344 5.18797 1.92778 6.8819 1.92336 8.65001C1.91894 10.4181 2.61708 12.1156 3.8642 13.3689C5.11131 14.6223 6.80525 15.3289 8.57336 15.3333C8.95436 15.3398 9.32672 15.2196 9.63199 14.9916C9.93727 14.7635 10.1582 14.4405 10.26 14.0733C10.325 13.8082 10.3243 13.5312 10.2581 13.2663C10.1919 13.0015 10.0621 12.7568 9.88003 12.5533C9.83793 12.5054 9.81046 12.4465 9.80088 12.3834C9.7913 12.3203 9.80001 12.2559 9.82598 12.1976C9.85195 12.1394 9.89408 12.0898 9.94738 12.0547C10.0007 12.0197 10.0629 12.0007 10.1267 12H11.2267C12.262 12.0049 13.2608 11.6178 14.0225 10.9167C14.7843 10.2155 15.2526 9.25217 15.3334 8.22001C15.3582 7.45042 15.2255 6.68388 14.9435 5.96739C14.6615 5.2509 14.2361 4.59957 13.6934 4.05335V4.05335ZM5.22669 10.4933C5.06301 10.6046 4.86999 10.6648 4.67209 10.6662C4.47419 10.6677 4.28029 10.6105 4.11496 10.5017C3.94962 10.3929 3.82028 10.2375 3.74332 10.0552C3.66635 9.87285 3.64521 9.67178 3.68259 9.47743C3.71996 9.28308 3.81417 9.10419 3.95327 8.96341C4.09237 8.82264 4.27012 8.7263 4.46401 8.6866C4.6579 8.6469 4.8592 8.66563 5.04244 8.74041C5.22568 8.81519 5.38261 8.94266 5.49336 9.10668C5.56757 9.21501 5.61957 9.33699 5.64634 9.46555C5.67311 9.59411 5.67413 9.7267 5.64933 9.85565C5.62453 9.9846 5.57441 10.1074 5.50187 10.2168C5.42932 10.3263 5.33579 10.4203 5.22669 10.4933V10.4933ZM6.20003 6.83335C6.10517 7.00903 5.9599 7.15229 5.78292 7.24469C5.60594 7.3371 5.40535 7.37441 5.20698 7.35183C5.00861 7.32924 4.82154 7.2478 4.66986 7.11798C4.51818 6.98816 4.40883 6.81591 4.35589 6.6234C4.30295 6.4309 4.30885 6.22695 4.37282 6.03783C4.43679 5.8487 4.55591 5.68306 4.71484 5.56221C4.87377 5.44137 5.06523 5.37087 5.26457 5.35979C5.46392 5.3487 5.66201 5.39754 5.83336 5.50001C6.05446 5.63224 6.21599 5.84469 6.2843 6.09309C6.35261 6.34148 6.32242 6.60666 6.20003 6.83335V6.83335ZM8.00003 5.33335C7.80225 5.33335 7.60891 5.2747 7.44446 5.16482C7.28001 5.05494 7.15184 4.89876 7.07615 4.71603C7.00046 4.5333 6.98066 4.33224 7.01924 4.13826C7.05783 3.94428 7.15307 3.76609 7.29292 3.62624C7.43277 3.48639 7.61096 3.39115 7.80494 3.35256C7.99892 3.31398 8.19998 3.33378 8.38271 3.40947C8.56544 3.48516 8.72162 3.61333 8.8315 3.77778C8.94138 3.94223 9.00003 4.13557 9.00003 4.33335C9.00003 4.59856 8.89467 4.85292 8.70713 5.04045C8.5196 5.22799 8.26524 5.33335 8.00003 5.33335V5.33335ZM11.8334 5.86668C11.662 5.96915 11.4639 6.01799 11.2646 6.00691C11.0652 5.99582 10.8738 5.92532 10.7148 5.80448C10.5559 5.68364 10.4368 5.51799 10.3728 5.32887C10.3088 5.13974 10.303 4.9358 10.3559 4.74329C10.4088 4.55079 10.5182 4.37854 10.6699 4.24872C10.8215 4.1189 11.0086 4.03745 11.207 4.01487C11.4054 3.99228 11.6059 4.0296 11.7829 4.122C11.9599 4.2144 12.1052 4.35767 12.2 4.53335C12.3224 4.76003 12.3526 5.02521 12.2843 5.27361C12.216 5.522 12.0545 5.73445 11.8334 5.86668V5.86668Z"
fill="#6f36da"
/>
</svg>
