<svg width="33" height="33" viewBox="0 0 33 33" fill="none" xmlns="http://www.w3.org/2000/svg">
<path d="M5.19748 28.875C5.51158 28.8841 5.81934 28.7854 6.06952 28.5953C6.31969 28.4052 6.4972 28.1351 6.57248 27.83C7.19159 25.377 8.55494 23.1758 10.4753 21.5287C12.3956 19.8817 14.7788 18.8695 17.2975 18.6312V20.1712C17.2977 20.6529 17.44 21.1237 17.7066 21.5249C17.9732 21.926 18.3523 22.2395 18.7962 22.4262C19.2777 22.6476 19.8128 22.7251 20.3373 22.6494C20.8617 22.5738 21.3532 22.3483 21.7525 22L28.71 15.9362C28.9768 15.7091 29.1911 15.4266 29.338 15.1085C29.4849 14.7904 29.561 14.4442 29.561 14.0937C29.561 13.7433 29.4849 13.3971 29.338 13.079C29.1911 12.7608 28.9768 12.4784 28.71 12.2512L21.7525 6.17374C21.3479 5.81942 20.8483 5.5915 20.3156 5.51819C19.7828 5.44487 19.2402 5.52937 18.755 5.76124C18.311 5.94795 17.932 6.26149 17.6654 6.66262C17.3988 7.06374 17.2565 7.53461 17.2562 8.01624V9.62499C13.5214 9.91375 10.0305 11.5919 7.47233 14.3283C4.91413 17.0646 3.47449 20.6605 3.43748 24.4062C3.43937 25.5606 3.58251 26.7104 3.86373 27.83C3.93901 28.1351 4.11652 28.4052 4.3667 28.5953C4.61688 28.7854 4.92463 28.8841 5.23873 28.875H5.19748Z" fill="#C24BD6"/>
</svg>
