<svg width="33" height="33" viewBox="0 0 33 33" fill="none" xmlns="http://www.w3.org/2000/svg">
<path d="M27.8025 28.875C27.4884 28.8841 27.1807 28.7854 26.9305 28.5953C26.6803 28.4052 26.5028 28.1351 26.4275 27.83C25.8084 25.377 24.4451 23.1758 22.5247 21.5287C20.6044 19.8817 18.2212 18.8695 15.7025 18.6312V20.1712C15.7023 20.6529 15.56 21.1237 15.2934 21.5249C15.0268 21.926 14.6477 22.2395 14.2038 22.4262C13.7223 22.6476 13.1872 22.7251 12.6627 22.6494C12.1383 22.5738 11.6468 22.3483 11.2475 22L4.29002 15.9362C4.02322 15.7091 3.80895 15.4266 3.66201 15.1085C3.51507 14.7904 3.43896 14.4442 3.43896 14.0937C3.43896 13.7433 3.51507 13.3971 3.66201 13.079C3.80895 12.7608 4.02322 12.4784 4.29002 12.2512L11.2475 6.17374C11.6521 5.81942 12.1517 5.5915 12.6844 5.51819C13.2172 5.44487 13.7598 5.52937 14.245 5.76124C14.689 5.94795 15.068 6.26149 15.3346 6.66262C15.6012 7.06374 15.7435 7.53461 15.7438 8.01624V9.62499C19.4786 9.91375 22.9695 11.5919 25.5277 14.3283C28.0859 17.0646 29.5255 20.6605 29.5625 24.4062C29.5606 25.5606 29.4175 26.7104 29.1363 27.83C29.061 28.1351 28.8835 28.4052 28.6333 28.5953C28.3831 28.7854 28.0754 28.8841 27.7613 28.875H27.8025Z"
fill="#6f36da"
/>
</svg>
