<svg width="20" height="24" viewBox="0 0 24 24" fill="none" xmlns="http://www.w3.org/2000/svg">
<path d="M5.0867 12.7792C3.85497 13.0736 2.75735 13.7721 1.96904 14.7633C1.18073 15.7544 0.747164 16.9811 0.737535 18.2475V22.6533C0.735603 22.7432 0.751871 22.8324 0.78536 22.9158C0.818849 22.9992 0.868866 23.0749 0.932399 23.1385C0.995932 23.202 1.07167 23.252 1.15504 23.2855C1.23842 23.319 1.32771 23.3353 1.41754 23.3333L6.00753 23.2483C7.03299 23.25 8.03735 22.9571 8.90125 22.4047C9.76514 21.8522 10.4522 21.0632 10.8809 20.1317C11.3207 19.2537 11.5014 18.2686 11.4019 17.2917C11.3024 16.3148 10.9268 15.3864 10.319 14.6151C9.71121 13.8439 8.89635 13.2616 7.96976 12.9365C7.04318 12.6113 6.04316 12.5568 5.0867 12.7792Z" fill="#6f36da"/>
<path d="M22.285 1.31833C21.6906 0.849565 20.9423 0.620154 20.1873 0.675208C19.4322 0.730261 18.7251 1.06579 18.205 1.61583L9.16667 10.6967C9.04382 10.8212 8.97495 10.9892 8.97495 11.1642C8.97495 11.3391 9.04382 11.5071 9.16667 11.6317L12.3542 14.8333C12.4788 14.9562 12.6467 15.0251 12.8217 15.0251C12.9966 15.0251 13.1646 14.9562 13.2892 14.8333L22.4833 5.66749C22.7557 5.39386 22.9711 5.0689 23.117 4.71143C23.2629 4.35395 23.3365 3.97108 23.3333 3.58499C23.3434 3.1522 23.2541 2.72285 23.0724 2.32993C22.8906 1.937 22.6213 1.59095 22.285 1.31833Z" fill="#6f36da"/>
</svg>
