<svg width="20" height="24" viewBox="0 0 23 22" fill="none" xmlns="http://www.w3.org/2000/svg">
<path d="M15.1411 0C13.7403 0 12.5319 0.961298 11.7903 2.41698C13.0262 3.90012 13.7678 5.93258 13.7678 8.26717C13.7678 9.06367 13.6854 9.77778 13.5206 10.4919C14.0425 10.794 14.5643 11.0137 15.1411 11.0137C17.4207 11.0137 19.2609 8.54182 19.2609 5.5206C19.2609 2.49938 17.4207 0.0274657 15.1411 0.0274657V0ZM6.90139 2.74657C4.62174 2.74657 2.78154 5.21848 2.78154 8.2397C2.78154 11.2609 4.62174 13.7328 6.90139 13.7328C9.18104 13.7328 11.0212 11.2609 11.0212 8.2397C11.0212 5.21848 9.18104 2.74657 6.90139 2.74657ZM19.9476 11.4257C18.7666 12.8265 17.1461 13.6779 15.3059 13.7328C16.0475 14.7765 16.5144 16.0399 16.5144 17.4132V19.226H22.0075V14.6667C22.0075 13.2385 21.1561 12.0025 19.9476 11.3983V11.4257ZM2.0949 14.1723C0.886409 14.7765 0.0349731 16.0125 0.0349731 17.4407V22H13.7678V17.4407C13.7678 16.0125 12.9164 14.7765 11.7079 14.1723C10.4719 15.628 8.79652 16.4794 6.90139 16.4794C5.00626 16.4794 3.33085 15.6005 2.0949 14.1723Z" fill="#6f36da"/>
</svg>
