<svg width="38" height="35" viewBox="0 0 38 35" fill="none" xmlns="http://www.w3.org/2000/svg">
<g filter="url(#filter0_d_4_38)">
<path d="M17.0489 2.92705C17.3483 2.00574 18.6517 2.00574 18.9511 2.92705L21.8167 11.7467C21.9506 12.1587 22.3346 12.4377 22.7678 12.4377H32.0413C33.0101 12.4377 33.4128 13.6773 32.6291 14.2467L25.1267 19.6976C24.7762 19.9522 24.6295 20.4036 24.7634 20.8156L27.6291 29.6353C27.9284 30.5566 26.874 31.3227 26.0902 30.7533L18.5878 25.3024C18.2373 25.0478 17.7627 25.0478 17.4122 25.3024L9.90976 30.7533C9.12605 31.3227 8.07157 30.5566 8.37092 29.6353L11.2366 20.8156C11.3705 20.4036 11.2238 19.9522 10.8733 19.6976L3.37088 14.2467C2.58717 13.6773 2.98994 12.4377 3.95867 12.4377H13.2322C13.6654 12.4377 14.0494 12.1587 14.1833 11.7467L17.0489 2.92705Z" fill="#FFD057" shape-rendering="crispEdges"/>
<path d="M22.7678 11.4377L19.9021 2.61803C19.3034 0.775409 16.6966 0.775418 16.0979 2.61804L13.2322 11.4377H3.95867C2.02122 11.4377 1.21567 13.9169 2.7831 15.0557L10.2855 20.5066L7.41987 29.3262C6.82116 31.1689 8.93012 32.7011 10.4975 31.5623L18 26.1115L25.5025 31.5623C27.0699 32.7011 29.1788 31.1689 28.5801 29.3262L25.7145 20.5066L33.2169 15.0557C34.7843 13.9169 33.9788 11.4377 32.0413 11.4377H22.7678Z" stroke="#9E9E9E" stroke-opacity="0.5" stroke-width="2" shape-rendering="crispEdges"/>
</g>
<defs>
<filter id="filter0_d_4_38" x="0.952942" y="0.236069" width="36.0941" height="34.7218" filterUnits="userSpaceOnUse" color-interpolation-filters="sRGB">
<feFlood flood-opacity="0" result="BackgroundImageFix"/>
<feColorMatrix in="SourceAlpha" type="matrix" values="0 0 0 0 0 0 0 0 0 0 0 0 0 0 0 0 0 0 127 0" result="hardAlpha"/>
<feOffset dx="1" dy="1"/>
<feGaussianBlur stdDeviation="0.5"/>
<feComposite in2="hardAlpha" operator="out"/>
<feColorMatrix type="matrix" values="0 0 0 0 0 0 0 0 0 0 0 0 0 0 0 0 0 0 0.25 0"/>
<feBlend mode="normal" in2="BackgroundImageFix" result="effect1_dropShadow_4_38"/>
<feBlend mode="normal" in="SourceGraphic" in2="effect1_dropShadow_4_38" result="shape"/>
</filter>
</defs>
</svg>
